# xmcd
#
# Track frame offsets: 
#        150
#        17885
#        40520
#
# Disc length: 782 seconds
#
# Revision: 0
# Processed by: cddbd v1.4PL0 Copyright (c) Steve Scherf et al.
# Submitted via: ExactAudioCopy v0.90b3
#
DISCID=18030c03
DTITLE=Chris Rea - Julia [CD Single)
DYEAR=1993
DGENRE=Blues
TTITLE0=Julia
TTITLE1=I Thought I Was Going to Lose You
TTITLE2=Jordan 191
EXTD=Julia\nI Thought I Was Going to Lose You\nJordan 191
EXTT0=Julia
EXTT1=
EXTT2=
PLAYORDER=
